<?xml version="1.0" encoding="UTF-8" standalone="no"?>
<svg
   width="65"
   height="65"
   viewBox="0 0 61 65"
   fill="none"
   version="1.1"
   id="svg3"
   sodipodi:docname="logo.svg"
   inkscape:version="1.3-dev (3b253243a0, 2022-08-31)"
   xmlns:inkscape="http://www.inkscape.org/namespaces/inkscape"
   xmlns:sodipodi="http://sodipodi.sourceforge.net/DTD/sodipodi-0.dtd"
   xmlns="http://www.w3.org/2000/svg"
   xmlns:svg="http://www.w3.org/2000/svg">
  <sodipodi:namedview
     id="namedview3"
     pagecolor="#ffffff"
     bordercolor="#666666"
     borderopacity="1.0"
     inkscape:showpageshadow="2"
     inkscape:pageopacity="0.0"
     inkscape:pagecheckerboard="0"
     inkscape:deskcolor="#d1d1d1"
     showgrid="false"
     inkscape:zoom="3.6307692"
     inkscape:cx="3.9936441"
     inkscape:cy="32.362288"
     inkscape:window-width="3436"
     inkscape:window-height="1401"
     inkscape:window-x="0"
     inkscape:window-y="37"
     inkscape:window-maximized="1"
     inkscape:current-layer="svg3" />
  <path
     d="M60.7539 14.3904C59.8143 7.40642 53.7273 1.90257 46.5117 0.836066C45.2943 0.655854 40.6819 0 29.9973 0H29.9175C19.2299 0 16.937 0.655854 15.7196 0.836066C8.70488 1.87302 2.29885 6.81852 0.744617 13.8852C-0.00294988 17.3654 -0.0827298 21.2237 0.0561464 24.7629C0.254119 29.8384 0.292531 34.905 0.753482 39.9598C1.07215 43.3175 1.62806 46.6484 2.41704 49.9276C3.89445 55.9839 9.87499 61.0239 15.7344 63.0801C22.0077 65.2244 28.7542 65.5804 35.2184 64.1082C35.9295 63.9428 36.6318 63.7508 37.3252 63.5321C38.8971 63.0329 40.738 62.4745 42.0913 61.4937C42.1099 61.4799 42.1251 61.4621 42.1358 61.4417C42.1466 61.4212 42.1526 61.3986 42.1534 61.3755V56.4773C42.153 56.4557 42.1479 56.4345 42.1383 56.4151C42.1287 56.3958 42.1149 56.3788 42.0979 56.3655C42.0809 56.3522 42.0611 56.3429 42.04 56.3382C42.019 56.3335 41.9971 56.3336 41.9761 56.3384C37.8345 57.3276 33.5905 57.8234 29.3324 57.8156C22.0045 57.8156 20.0336 54.3384 19.4693 52.8908C19.0156 51.6397 18.7275 50.3346 18.6124 49.0088C18.6112 48.9866 18.6153 48.9643 18.6243 48.9439C18.6333 48.9236 18.647 48.9056 18.6643 48.8915C18.6816 48.8774 18.7019 48.8675 18.7237 48.8628C18.7455 48.858 18.7681 48.8585 18.7897 48.8641C22.8622 49.8465 27.037 50.3423 31.2265 50.3412C32.234 50.3412 33.2387 50.3412 34.2463 50.3146C38.4598 50.1964 42.9009 49.9808 47.0465 49.1713C47.1499 49.1506 47.2534 49.1329 47.342 49.1063C53.881 47.8507 60.1038 43.9097 60.7362 33.9301C60.7598 33.5372 60.8189 29.8148 60.8189 29.4071C60.8218 28.0215 61.2651 19.5781 60.7539 14.3904Z"
     fill="url(#paint0_linear_89_8)"
     id="path1" />
  <defs
     id="defs3">
    <linearGradient
       id="paint0_linear_89_8"
       x1="30.5"
       y1="0"
       x2="30.5"
       y2="65"
       gradientUnits="userSpaceOnUse">
      <stop
         stop-color="#6364FF"
         id="stop2"
         offset="0"
         style="stop-color:#d57c38;stop-opacity:1;" />
      <stop
         offset="1"
         stop-color="#563ACC"
         id="stop3"
         style="stop-color:#d3452e;stop-opacity:1;" />
    </linearGradient>
  </defs>
  <text
     xml:space="preserve"
     style="font-style:normal;font-variant:normal;font-weight:normal;font-stretch:normal;font-size:53.3333px;line-height:1.25;font-family:'Proxima Nova';-inkscape-font-specification:'Proxima Nova, Normal';font-variant-ligatures:normal;font-variant-caps:normal;font-variant-numeric:normal;font-variant-east-asian:normal;fill:#ffffff;fill-opacity:1"
     x="13.986242"
     y="41.547562"
     id="text3"><tspan
       sodipodi:role="line"
       id="tspan3"
       x="13.986242"
       y="41.547562">S</tspan></text>
</svg>
