<?xml version="1.0" encoding="UTF-8" standalone="no"?>
<svg
   version="1.1"
   id="Layer_1"
   x="0px"
   y="0px"
   viewBox="0 0 36.636459 40.001924"
   xml:space="preserve"
   sodipodi:docname="sa-white.svg"
   width="36.636459"
   height="40.001926"
   inkscape:version="1.3-dev (3b253243a0, 2022-08-31)"
   xmlns:inkscape="http://www.inkscape.org/namespaces/inkscape"
   xmlns:sodipodi="http://sodipodi.sourceforge.net/DTD/sodipodi-0.dtd"
   xmlns="http://www.w3.org/2000/svg"
   xmlns:svg="http://www.w3.org/2000/svg"><defs
   id="defs2" /><sodipodi:namedview
   id="namedview2"
   pagecolor="#ffffff"
   bordercolor="#666666"
   borderopacity="1.0"
   inkscape:showpageshadow="2"
   inkscape:pageopacity="0.0"
   inkscape:pagecheckerboard="0"
   inkscape:deskcolor="#d1d1d1"
   showgrid="true"
   inkscape:zoom="7.4333633"
   inkscape:cx="42.309246"
   inkscape:cy="43.116418"
   inkscape:window-width="1716"
   inkscape:window-height="1401"
   inkscape:window-x="1720"
   inkscape:window-y="37"
   inkscape:window-maximized="1"
   inkscape:current-layer="Layer_1"><inkscape:grid
     type="xygrid"
     id="grid2"
     originx="-5.041091"
     originy="-18.102437" /></sodipodi:namedview>
<style
   type="text/css"
   id="style1">
	.st0{fill:#FFFFFF;}
</style>
<g
   id="g2"
   style="fill:#ffffff;fill-opacity:1;stroke-width:7.8884"
   transform="matrix(0.12676413,0,0,0.12676413,-0.65156763,3.7556228)">
	<path
   class="st0"
   d="m 37.58,97.76 h 178.73 c 5.7,0 10.68,-3.56 12.46,-8.9 1.42,-5.34 -0.36,-11.04 -4.99,-14.24 L 134.41,10.53 c -4.63,-3.2 -10.68,-3.2 -14.95,0 L 30.11,74.61 c -3.2,2.49 -5.34,6.05 -5.34,10.33 0,7.12 5.69,12.82 12.81,12.82 z m 89.37,-60.89 49.49,35.25 H 77.46 Z"
   id="path1"
   style="fill:#ffffff;fill-opacity:1;stroke-width:7.8884" />
	<polygon
   class="st0"
   points="109.45,185.4 109.85,127.82 80.25,113.55 80.25,199.67 "
   id="polygon1"
   style="fill:#ffffff;fill-opacity:1;stroke-width:7.8884" />
	<polygon
   class="st0"
   points="174.19,199.26 174.19,114.37 144.99,128.64 144.99,186.21 "
   id="polygon2"
   style="fill:#ffffff;fill-opacity:1;stroke-width:7.8884" />
	<path
   class="st0"
   d="m 242.07,226.42 c -0.01,0 -0.03,0 -0.04,0 h -10.75 v -10.74 c 0,-3.71 -3.01,-6.72 -6.72,-6.72 h -10.1 v -86.21 c 0,-8.2 -6.71,-14.9 -14.9,-14.9 -8.2,0 -14.9,6.71 -14.9,14.9 v 86.21 L 69.24,208.94 v -86.19 c 0,-8.2 -6.71,-14.9 -14.9,-14.9 -8.2,0 -14.9,6.71 -14.9,14.9 v 86.18 H 29.36 c -3.71,0 -6.72,3.01 -6.72,6.72 v 10.74 H 11.86 c -3.71,0 -6.72,3.01 -6.72,6.72 v 11.68 h 243.62 v -11.63 c 0.01,-3.71 -2.98,-6.73 -6.69,-6.74 z"
   id="path2"
   style="fill:#ffffff;fill-opacity:1;stroke-width:7.8884" />
</g>
<path
   style="fill:#ffffff;stroke:#ffffff;stroke-width:1px;stroke-linecap:butt;stroke-linejoin:miter;stroke-opacity:1"
   d="m 36.136462,0.0016888 c -0.1351,39.9985472 -0.1351,39.9985472 -0.1351,39.9985472"
   id="path3" /></svg>
